<svg width="24" height="24" viewBox="0 0 24 24" fill="none" xmlns="http://www.w3.org/2000/svg">
<path fill-rule="evenodd" clip-rule="evenodd" d="M11 17H4C3.20435 17 2.44129 16.6839 1.87868 16.1213C1.31607 15.5587 1 14.7956 1 14V6C1 5.20435 1.31607 4.44129 1.87868 3.87868C2.44129 3.31607 3.20435 3 4 3H20C20.7956 3 21.5587 3.31607 22.1213 3.87868C22.6839 4.44129 23 5.20435 23 6V14C23 14.7956 22.6839 15.5587 22.1213 16.1213C21.5587 16.6839 20.7956 17 20 17H13V19H16C16.2652 19 16.5196 19.1054 16.7071 19.2929C16.8946 19.4804 17 19.7348 17 20C17 20.2652 16.8946 20.5196 16.7071 20.7071C16.5196 20.8946 16.2652 21 16 21H8C7.73478 21 7.48043 20.8946 7.29289 20.7071C7.10536 20.5196 7 20.2652 7 20C7 19.7348 7.10536 19.4804 7.29289 19.2929C7.48043 19.1054 7.73478 19 8 19H11V17ZM4 5H20C20.2652 5 20.5196 5.10536 20.7071 5.29289C20.8946 5.48043 21 5.73478 21 6V14C21 14.2652 20.8946 14.5196 20.7071 14.7071C20.5196 14.8946 20.2652 15 20 15H4C3.73478 15 3.48043 14.8946 3.29289 14.7071C3.10536 14.5196 3 14.2652 3 14V6C3 5.73478 3.10536 5.48043 3.29289 5.29289C3.48043 5.10536 3.73478 5 4 5Z" fill="black"/>
<rect x="16" y="9.19995" width="1.6" height="8" rx="0.8" transform="rotate(90 16 9.19995)" fill="black"/>
<path d="M15.7574 9.38583C16.0809 9.70936 16.0809 10.2339 15.7574 10.5574C15.4338 10.8809 14.9093 10.8809 14.5858 10.5574L12.2426 8.21426C11.9191 7.89074 11.9191 7.36621 12.2426 7.04269C12.5662 6.71917 13.0907 6.71917 13.4142 7.04269L15.7574 9.38583Z" fill="black"/>
<path d="M14.5858 9.44259C14.9093 9.11907 15.4338 9.11907 15.7574 9.44259C16.0809 9.76611 16.0809 10.2906 15.7574 10.6142L13.4142 12.9573C13.0907 13.2808 12.5662 13.2808 12.2426 12.9573C11.9191 12.6338 11.9191 12.1093 12.2426 11.7857L14.5858 9.44259Z" fill="black"/>
</svg>
