<svg width="20" height="20" viewBox="0 0 20 20" fill="none" xmlns="http://www.w3.org/2000/svg">
<path d="M8.33317 3.33341C7.44912 3.33341 6.60127 3.6846 5.97615 4.30973C5.35103 4.93485 4.99984 5.78269 4.99984 6.66675C4.99984 7.5508 5.35103 8.39865 5.97615 9.02377C6.60127 9.64889 7.44912 10.0001 8.33317 10.0001C9.21723 10.0001 10.0651 9.64889 10.6902 9.02377C11.3153 8.39865 11.6665 7.5508 11.6665 6.66675C11.6665 5.78269 11.3153 4.93485 10.6902 4.30973C10.0651 3.6846 9.21723 3.33341 8.33317 3.33341ZM3.33317 6.66675C3.33317 5.34067 3.85995 4.0689 4.79764 3.13121C5.73532 2.19353 7.00709 1.66675 8.33317 1.66675C9.65925 1.66675 10.931 2.19353 11.8687 3.13121C12.8064 4.0689 13.3332 5.34067 13.3332 6.66675C13.3332 7.99283 12.8064 9.2646 11.8687 10.2023C10.931 11.14 9.65925 11.6667 8.33317 11.6667C7.00709 11.6667 5.73532 11.14 4.79764 10.2023C3.85995 9.2646 3.33317 7.99283 3.33317 6.66675ZM15.8332 9.16675C16.0542 9.16675 16.2661 9.25455 16.4224 9.41083C16.5787 9.56711 16.6665 9.77907 16.6665 10.0001V10.8334H17.4998C17.7209 10.8334 17.9328 10.9212 18.0891 11.0775C18.2454 11.2338 18.3332 11.4457 18.3332 11.6667C18.3332 11.8878 18.2454 12.0997 18.0891 12.256C17.9328 12.4123 17.7209 12.5001 17.4998 12.5001H16.6665V13.3334C16.6665 13.5544 16.5787 13.7664 16.4224 13.9227C16.2661 14.079 16.0542 14.1667 15.8332 14.1667C15.6122 14.1667 15.4002 14.079 15.2439 13.9227C15.0876 13.7664 14.9998 13.5544 14.9998 13.3334V12.5001H14.1665C13.9455 12.5001 13.7335 12.4123 13.5772 12.256C13.421 12.0997 13.3332 11.8878 13.3332 11.6667C13.3332 11.4457 13.421 11.2338 13.5772 11.0775C13.7335 10.9212 13.9455 10.8334 14.1665 10.8334H14.9998V10.0001C14.9998 9.77907 15.0876 9.56711 15.2439 9.41083C15.4002 9.25455 15.6122 9.16675 15.8332 9.16675ZM5.4165 15.0001C4.3665 15.0001 3.33317 16.0109 3.33317 17.5001C3.33317 17.7211 3.24537 17.9331 3.08909 18.0893C2.93281 18.2456 2.72085 18.3334 2.49984 18.3334C2.27882 18.3334 2.06686 18.2456 1.91058 18.0893C1.7543 17.9331 1.6665 17.7211 1.6665 17.5001C1.6665 15.3067 3.244 13.3334 5.4165 13.3334H11.2498C13.4223 13.3334 14.9998 15.3067 14.9998 17.5001C14.9998 17.7211 14.912 17.9331 14.7558 18.0893C14.5995 18.2456 14.3875 18.3334 14.1665 18.3334C13.9455 18.3334 13.7335 18.2456 13.5772 18.0893C13.421 17.9331 13.3332 17.7211 13.3332 17.5001C13.3332 16.0109 12.2998 15.0001 11.2498 15.0001H5.4165Z" fill="black"/>
</svg>
