<svg width="24" height="20" viewBox="0 0 24 20" fill="none" xmlns="http://www.w3.org/2000/svg">
<path d="M7.2 9.60019C9.52125 9.60019 11.4 7.72144 11.4 5.4002C11.4 3.07895 9.52125 1.2002 7.2 1.2002C4.87875 1.2002 3 3.07895 3 5.4002C3 7.72144 4.87875 9.60019 7.2 9.60019ZM10.08 10.8002H9.76875C8.98875 11.1752 8.1225 11.4002 7.2 11.4002C6.2775 11.4002 5.415 11.1752 4.63125 10.8002H4.32C1.935 10.8002 0 12.7352 0 15.1202V16.2002C0 17.1939 0.80625 18.0002 1.8 18.0002H12.6C13.5938 18.0002 14.4 17.1939 14.4 16.2002V15.1202C14.4 12.7352 12.465 10.8002 10.08 10.8002ZM18 9.60019C19.9875 9.60019 21.6 7.98769 21.6 6.0002C21.6 4.0127 19.9875 2.4002 18 2.4002C16.0125 2.4002 14.4 4.0127 14.4 6.0002C14.4 7.98769 16.0125 9.60019 18 9.60019ZM19.8 10.8002H19.6575C19.1363 10.9802 18.585 11.1002 18 11.1002C17.415 11.1002 16.8638 10.9802 16.3425 10.8002H16.2C15.435 10.8002 14.73 11.0214 14.1113 11.3777C15.0263 12.3639 15.6 13.6727 15.6 15.1202V16.5602C15.6 16.6427 15.5813 16.7214 15.5775 16.8002H22.2C23.1938 16.8002 24 15.9939 24 15.0002C24 12.6789 22.1213 10.8002 19.8 10.8002Z" fill="#F0F0F2"/>
</svg>
