<svg width="20" height="20" viewBox="0 0 20 20" fill="none" xmlns="http://www.w3.org/2000/svg">
<path d="M9.99984 15.8333V18.3333M9.99984 15.8333C11.5469 15.8333 13.0307 15.2187 14.1246 14.1247C15.2186 13.0307 15.8332 11.547 15.8332 9.99992V8.33325M9.99984 15.8333C8.45274 15.8333 6.96901 15.2187 5.87505 14.1247C4.78109 13.0307 4.1665 11.547 4.1665 9.99992V8.33325" stroke="black" stroke-opacity="0.88" stroke-width="1.66667" stroke-linecap="round" stroke-linejoin="round"/>
<path d="M12.5 4.16675C12.5 2.78604 11.3807 1.66675 10 1.66675C8.61929 1.66675 7.5 2.78604 7.5 4.16675V10.0001C7.5 11.3808 8.61929 12.5001 10 12.5001C11.3807 12.5001 12.5 11.3808 12.5 10.0001V4.16675Z" stroke="black" stroke-opacity="0.88" stroke-width="1.66667" stroke-linecap="round" stroke-linejoin="round"/>
</svg>
