<svg width="24" height="24" viewBox="0 0 24 24" fill="none" xmlns="http://www.w3.org/2000/svg">
<path d="M21 12C21 10.22 20.4722 8.47991 19.4832 6.99987C18.4943 5.51983 17.0887 4.36628 15.4442 3.68509C13.7996 3.0039 11.99 2.82567 10.2442 3.17294C8.49836 3.5202 6.89472 4.37737 5.63604 5.63604C4.37737 6.89472 3.5202 8.49836 3.17294 10.2442C2.82567 11.99 3.0039 13.7996 3.68509 15.4442C4.36628 17.0887 5.51983 18.4943 6.99987 19.4832C8.47991 20.4722 10.22 21 12 21M3.6 9H20.4M3.6 15H11.5" stroke="#F0F0F2" stroke-width="2" stroke-linecap="round" stroke-linejoin="round"/>
<path d="M11.5002 3C9.8155 5.69961 8.92236 8.81787 8.92236 12C8.92236 15.1821 9.8155 18.3004 11.5002 21M12.5002 3C14.1166 5.59006 15.0058 8.56766 15.0742 11.62M20.2002 20.2L22.0002 22M15.0002 18C15.0002 18.7956 15.3162 19.5587 15.8788 20.1213C16.4414 20.6839 17.2045 21 18.0002 21C18.7958 21 19.5589 20.6839 20.1215 20.1213C20.6841 19.5587 21.0002 18.7956 21.0002 18C21.0002 17.2044 20.6841 16.4413 20.1215 15.8787C19.5589 15.3161 18.7958 15 18.0002 15C17.2045 15 16.4414 15.3161 15.8788 15.8787C15.3162 16.4413 15.0002 17.2044 15.0002 18Z" stroke="#F0F0F2" stroke-width="2" stroke-linecap="round" stroke-linejoin="round"/>
</svg>
