<svg width="24" height="24" viewBox="0 0 24 24" fill="none" xmlns="http://www.w3.org/2000/svg">
<path d="M20.9851 12.5181C21.0901 10.6962 20.6388 8.88539 19.6911 7.32587C18.7433 5.76636 17.3438 4.53181 15.6783 3.78597C14.0127 3.04013 12.1598 2.81824 10.3652 3.14973C8.57062 3.48122 6.91923 4.35043 5.63003 5.64207C4.34083 6.93371 3.47475 8.58674 3.14665 10.3819C2.81856 12.1771 3.04395 14.0297 3.79294 15.6938C4.54193 17.3579 5.77912 18.7551 7.34043 19.6999C8.90174 20.6447 10.7134 21.0926 12.5351 20.9841M3.60008 9.00009H20.4001M3.60008 15.0001H15.0001" stroke="#F0F0F2" stroke-width="2" stroke-linecap="round" stroke-linejoin="round"/>
<path d="M11.5002 3C9.8155 5.69961 8.92236 8.81787 8.92236 12C8.92236 15.1821 9.8155 18.3004 11.5002 21M12.5002 3C14.7607 6.62188 15.5757 10.9618 14.7832 15.157M16.0002 19H22.0002M19.0002 16V22" stroke="#F0F0F2" stroke-width="2" stroke-linecap="round" stroke-linejoin="round"/>
</svg>
