<svg width="20" height="20" viewBox="0 0 20 20" fill="none" xmlns="http://www.w3.org/2000/svg">
<path d="M15 11.1667L13.4167 12.75C13.2639 12.9028 13.0694 12.9792 12.8333 12.9792C12.5972 12.9792 12.4028 12.9028 12.25 12.75C12.0972 12.5972 12.0208 12.4028 12.0208 12.1667C12.0208 11.9305 12.0972 11.7361 12.25 11.5833L13.8333 9.99999L12.25 8.41666C12.0972 8.26388 12.0208 8.06943 12.0208 7.83332C12.0208 7.59721 12.0972 7.40277 12.25 7.24999C12.4028 7.09721 12.5972 7.02082 12.8333 7.02082C13.0694 7.02082 13.2639 7.09721 13.4167 7.24999L15 8.83332L16.5833 7.24999C16.7361 7.09721 16.9306 7.02082 17.1667 7.02082C17.4028 7.02082 17.5972 7.09721 17.75 7.24999C17.9028 7.40277 17.9792 7.59721 17.9792 7.83332C17.9792 8.06943 17.9028 8.26388 17.75 8.41666L16.1667 9.99999L17.75 11.5833C17.9028 11.7361 17.9792 11.9305 17.9792 12.1667C17.9792 12.4028 17.9028 12.5972 17.75 12.75C17.5972 12.9028 17.4028 12.9792 17.1667 12.9792C16.9306 12.9792 16.7361 12.9028 16.5833 12.75L15 11.1667ZM5.83333 12.5H3.33333C3.09722 12.5 2.89944 12.42 2.74 12.26C2.58056 12.1 2.50056 11.9022 2.5 11.6667V8.33332C2.5 8.09721 2.58 7.89943 2.74 7.73999C2.9 7.58055 3.09778 7.50055 3.33333 7.49999H5.83333L8.58333 4.74999C8.84722 4.4861 9.14944 4.42693 9.49 4.57249C9.83055 4.71805 10.0006 4.9786 10 5.35416V14.6458C10 15.0208 9.83 15.2814 9.49 15.4275C9.15 15.5736 8.84778 15.5144 8.58333 15.25L5.83333 12.5Z" fill="black" fill-opacity="0.88"/>
</svg>
